<?xml version="1.0" encoding="iso-8859-1"?>
<!-- Uploaded to: SVG Repo, www.svgrepo.com, Generator: SVG Repo Mixer Tools -->
<svg version="1.1" id="Layer_1" xmlns="http://www.w3.org/2000/svg" xmlns:xlink="http://www.w3.org/1999/xlink" 
	 viewBox="0 0 512 512" xml:space="preserve">
<rect x="8.436" y="103.525" style="fill:#F7B239;" width="229.556" height="363.464"/>
<g>
	<rect x="162.557" y="420.594" style="fill:#E6E6E6;" width="75.438" height="46.395"/>
	<rect x="83.867" y="420.594" style="fill:#E6E6E6;" width="78.69" height="46.395"/>
	<rect x="8.44" y="420.594" style="fill:#E6E6E6;" width="75.427" height="46.395"/>
</g>
<rect x="8.44" y="103.525" style="fill:#F95428;" width="229.556" height="39.126"/>
<rect x="274.004" y="103.525" style="fill:#F7B239;" width="229.556" height="363.464"/>
<g>
	<rect x="428.122" y="420.594" style="fill:#E6E6E6;" width="75.438" height="46.395"/>
	<rect x="349.432" y="420.594" style="fill:#E6E6E6;" width="78.69" height="46.395"/>
	<rect x="274.004" y="420.594" style="fill:#E6E6E6;" width="75.427" height="46.395"/>
</g>
<rect x="274.004" y="103.525" style="fill:#F95428;" width="229.556" height="39.126"/>
<rect x="141.222" y="45.011" style="fill:#F7B239;" width="229.556" height="363.464"/>
<circle style="fill:#2BA5F7;" cx="201.706" cy="144.103" r="36.759"/>
<g>
	<rect x="295.34" y="362.08" style="fill:#E6E6E6;" width="75.438" height="46.395"/>
	<rect x="216.649" y="362.08" style="fill:#E6E6E6;" width="78.69" height="46.395"/>
	<rect x="141.222" y="362.08" style="fill:#E6E6E6;" width="75.427" height="46.395"/>
</g>
<rect x="141.222" y="45.01" style="fill:#F95428;" width="229.556" height="39.126"/>
<g>
	<path style="fill:#333333;" d="M141.222,416.914h229.556c4.661,0,8.44-3.779,8.44-8.44V45.011c0-4.661-3.779-8.44-8.44-8.44
		H141.222c-4.661,0-8.44,3.779-8.44,8.44v363.464C132.782,413.137,136.561,416.914,141.222,416.914z M149.662,370.519h58.554v29.516
		h-58.554V370.519z M246.107,135.663c-3.967-20.9-22.36-36.755-44.397-36.755s-40.429,15.855-44.395,36.755h-7.653V92.576h212.677
		v43.087H246.107z M230.031,144.106c0,15.615-12.704,28.32-28.32,28.32s-28.32-12.704-28.32-28.32s12.704-28.32,28.32-28.32
		S230.031,128.491,230.031,144.106z M157.315,152.542c3.964,20.903,22.358,36.763,44.397,36.763s40.433-15.86,44.398-36.763h116.23
		V353.64H149.662V152.542H157.315z M286.906,370.519v29.516h-61.811v-29.516H286.906z M303.785,400.035v-29.516h58.554v29.516
		H303.785z M362.338,53.451v22.247H149.662V53.451H362.338z"/>
	<path style="fill:#333333;" d="M237.996,423.469c-4.661,0-8.44,3.779-8.44,8.44v26.641h-58.554V436.63
		c0-4.661-3.779-8.44-8.44-8.44s-8.44,3.779-8.44,8.44v21.919H92.312v-29.517h22.762c4.661,0,8.44-3.779,8.44-8.44
		s-3.779-8.44-8.44-8.44H16.879V211.055h98.195c4.661,0,8.44-3.779,8.44-8.44s-3.779-8.44-8.44-8.44H16.879V151.09h98.195
		c4.661,0,8.44-3.779,8.44-8.44c0-4.661-3.779-8.44-8.44-8.44H16.879v-22.246h98.195c4.661,0,8.44-3.779,8.44-8.44
		c0-4.661-3.779-8.44-8.44-8.44H8.44c-4.661,0-8.44,3.778-8.44,8.44v363.464c0,4.661,3.779,8.44,8.44,8.44h229.556
		c4.661,0,8.44-3.779,8.44-8.44V431.91C246.435,427.248,242.656,423.469,237.996,423.469z M16.879,429.032h58.554v29.517H16.879
		V429.032z"/>
	<path style="fill:#333333;" d="M503.56,95.086H396.926c-4.661,0-8.44,3.779-8.44,8.44c0,4.661,3.779,8.44,8.44,8.44h98.195v22.246
		h-98.195c-4.661,0-8.44,3.779-8.44,8.44c0,4.661,3.779,8.44,8.44,8.44h98.195v43.087h-98.195c-4.661,0-8.44,3.779-8.44,8.44
		s3.779,8.44,8.44,8.44h98.195v201.098h-98.195c-4.661,0-8.44,3.779-8.44,8.44s3.779,8.44,8.44,8.44h22.762v29.517h-61.811V436.63
		c0-4.661-3.779-8.44-8.44-8.44s-8.44,3.779-8.44,8.44v21.919h-58.554v-26.64c0-4.661-3.779-8.44-8.44-8.44
		c-4.661,0-8.44,3.779-8.44,8.44v35.079c0,4.661,3.779,8.44,8.44,8.44H503.56c4.661,0,8.44-3.779,8.44-8.44V103.525
		C512,98.863,508.221,95.086,503.56,95.086z M436.567,458.549v-29.517h58.554v29.517H436.567z"/>
	<path style="fill:#333333;" d="M262.303,195.621h79.477c4.661,0,8.44-3.779,8.44-8.44c0-4.661-3.779-8.44-8.44-8.44h-79.477
		c-4.661,0-8.44,3.779-8.44,8.44C253.863,191.842,257.642,195.621,262.303,195.621z"/>
	<path style="fill:#333333;" d="M170.62,230.758h170.759c4.661,0,8.44-3.779,8.44-8.44s-3.779-8.44-8.44-8.44H170.62
		c-4.661,0-8.44,3.779-8.44,8.44S165.959,230.758,170.62,230.758z"/>
	<path style="fill:#333333;" d="M170.62,265.896h170.759c4.661,0,8.44-3.779,8.44-8.44c0-4.661-3.779-8.44-8.44-8.44H170.62
		c-4.661,0-8.44,3.779-8.44,8.44C162.18,262.117,165.959,265.896,170.62,265.896z"/>
	<path style="fill:#333333;" d="M341.379,284.154H170.62c-4.661,0-8.44,3.779-8.44,8.44c0,4.661,3.779,8.44,8.44,8.44h170.759
		c4.661,0,8.44-3.779,8.44-8.44S346.04,284.154,341.379,284.154z"/>
	<path style="fill:#333333;" d="M396.926,254.134h77.637c4.661,0,8.44-3.779,8.44-8.44c0-4.661-3.779-8.44-8.44-8.44h-77.637
		c-4.661,0-8.44,3.779-8.44,8.44C388.486,250.356,392.265,254.134,396.926,254.134z"/>
	<path style="fill:#333333;" d="M396.926,289.271h77.235c4.661,0,8.44-3.779,8.44-8.44c0-4.661-3.779-8.44-8.44-8.44h-77.235
		c-4.661,0-8.44,3.779-8.44,8.44C388.486,285.492,392.265,289.271,396.926,289.271z"/>
	<path style="fill:#333333;" d="M474.162,307.53h-38.424c-4.661,0-8.44,3.779-8.44,8.44s3.779,8.44,8.44,8.44h38.424
		c4.661,0,8.44-3.779,8.44-8.44S478.822,307.53,474.162,307.53z"/>
	<path style="fill:#333333;" d="M115.074,237.255H37.437c-4.661,0-8.44,3.779-8.44,8.44c0,4.661,3.779,8.44,8.44,8.44h77.637
		c4.661,0,8.44-3.779,8.44-8.44C123.514,241.034,119.735,237.255,115.074,237.255z"/>
	<path style="fill:#333333;" d="M115.074,272.392H37.837c-4.661,0-8.44,3.779-8.44,8.44s3.779,8.44,8.44,8.44h77.235
		c4.661,0,8.44-3.779,8.44-8.44C123.512,276.171,119.735,272.392,115.074,272.392z"/>
</g>
</svg>